REM DIRINDEX 1\5,1\2\6,1\2\7,1\3\8,1\3\9,1\4\10,1\4\11,1\4\12
REM DIRNAME cjc026,folder01,folder02,folder03,folder04,folder05,folder06,folder07,folder08,folder09,folder10,folder11
TITLE ""
FILE "EJE_DB3000_5th_1A_23.mp3" MP3
  TRACK 01 AUDIO
    TITLE "0:"
    INDEX 01 00:00:00
  TRACK 02 AUDIO
    TITLE "10:cjc026_07512"
    INDEX 01 00:00:13
  TRACK 03 AUDIO
    TITLE "0:"
    INDEX 01 00:01:09
  TRACK 04 AUDIO
    TITLE "11:cjc026_07513"
    INDEX 01 00:01:58
  TRACK 05 AUDIO
    TITLE "0:"
    INDEX 01 00:02:71
  TRACK 06 AUDIO
    TITLE "12:cjc026_07514"
    INDEX 01 00:03:45
  TRACK 07 AUDIO
    TITLE "0:"
    INDEX 01 00:04:40
  TRACK 08 AUDIO
    TITLE "10:cjc026_07515"
    INDEX 01 00:05:14
  TRACK 09 AUDIO
    TITLE "0:"
    INDEX 01 00:06:18
  TRACK 10 AUDIO
    TITLE "11:cjc026_07516"
    INDEX 01 00:06:67
  TRACK 11 AUDIO
    TITLE "0:"
    INDEX 01 00:07:66
  TRACK 12 AUDIO
    TITLE "12:cjc026_07517"
    INDEX 01 00:08:40
  TRACK 13 AUDIO
    TITLE "0:"
    INDEX 01 00:09:44
  TRACK 14 AUDIO
    TITLE "10:cjc026_07518"
    INDEX 01 00:10:19
  TRACK 15 AUDIO
    TITLE "0:"
    INDEX 01 00:11:21
  TRACK 16 AUDIO
    TITLE "11:cjc026_07519"
    INDEX 01 00:11:72
  TRACK 17 AUDIO
    TITLE "0:"
    INDEX 01 00:13:04
  TRACK 18 AUDIO
    TITLE "12:cjc026_07520"
    INDEX 01 00:13:55
  TRACK 19 AUDIO
    TITLE "0:"
    INDEX 01 00:14:56
  TRACK 20 AUDIO
    TITLE "10:cjc026_07521"
    INDEX 01 00:15:32
  TRACK 21 AUDIO
    TITLE "0:"
    INDEX 01 00:16:30
  TRACK 22 AUDIO
    TITLE "11:cjc026_07522"
    INDEX 01 00:17:06
  TRACK 23 AUDIO
    TITLE "0:"
    INDEX 01 00:17:74
  TRACK 24 AUDIO
    TITLE "12:cjc026_07523"
    INDEX 01 00:18:48
  TRACK 25 AUDIO
    TITLE "0:"
    INDEX 01 00:19:46
  TRACK 26 AUDIO
    TITLE "10:cjc026_07524"
    INDEX 01 00:20:24
  TRACK 27 AUDIO
    TITLE "0:"
    INDEX 01 00:21:45
  TRACK 28 AUDIO
    TITLE "11:cjc026_07525"
    INDEX 01 00:22:21
  TRACK 29 AUDIO
    TITLE "0:"
    INDEX 01 00:23:44
  TRACK 30 AUDIO
    TITLE "12:cjc026_07526"
    INDEX 01 00:24:20
  TRACK 31 AUDIO
    TITLE "0:"
    INDEX 01 00:25:41
  TRACK 32 AUDIO
    TITLE "10:cjc026_07527"
    INDEX 01 00:26:15
  TRACK 33 AUDIO
    TITLE "0:"
    INDEX 01 00:27:32
  TRACK 34 AUDIO
    TITLE "11:cjc026_07528"
    INDEX 01 00:28:08
  TRACK 35 AUDIO
    TITLE "0:"
    INDEX 01 00:29:25
  TRACK 36 AUDIO
    TITLE "12:cjc026_07529"
    INDEX 01 00:30:01
  TRACK 37 AUDIO
    TITLE "0:"
    INDEX 01 00:31:18
  TRACK 38 AUDIO
    TITLE "10:cjc026_07530"
    INDEX 01 00:31:67
  TRACK 39 AUDIO
    TITLE "0:"
    INDEX 01 00:32:62
  TRACK 40 AUDIO
    TITLE "11:cjc026_07531"
    INDEX 01 00:33:38
  TRACK 41 AUDIO
    TITLE "0:"
    INDEX 01 00:34:36
  TRACK 42 AUDIO
    TITLE "12:cjc026_07532"
    INDEX 01 00:35:10
  TRACK 43 AUDIO
    TITLE "0:"
    INDEX 01 00:36:05
  TRACK 44 AUDIO
    TITLE "10:cjc026_07533"
    INDEX 01 00:36:54
  TRACK 45 AUDIO
    TITLE "0:"
    INDEX 01 00:37:56
  TRACK 46 AUDIO
    TITLE "11:cjc026_07534"
    INDEX 01 00:38:30
  TRACK 47 AUDIO
    TITLE "0:"
    INDEX 01 00:39:41
  TRACK 48 AUDIO
    TITLE "12:cjc026_07535"
    INDEX 01 00:40:15
  TRACK 49 AUDIO
    TITLE "0:"
    INDEX 01 00:41:14
  TRACK 50 AUDIO
    TITLE "10:cjc026_07536"
    INDEX 01 00:41:63
  TRACK 51 AUDIO
    TITLE "0:"
    INDEX 01 00:42:74
  TRACK 52 AUDIO
    TITLE "11:cjc026_07537"
    INDEX 01 00:43:48
  TRACK 53 AUDIO
    TITLE "0:"
    INDEX 01 00:44:63
  TRACK 54 AUDIO
    TITLE "12:cjc026_07538"
    INDEX 01 00:45:37
  TRACK 55 AUDIO
    TITLE "0:"
    INDEX 01 00:46:49
  TRACK 56 AUDIO
    TITLE "10:cjc026_07539"
    INDEX 01 00:47:27
  TRACK 57 AUDIO
    TITLE "0:"
    INDEX 01 00:48:24
  TRACK 58 AUDIO
    TITLE "11:cjc026_07540"
    INDEX 01 00:48:73
  TRACK 59 AUDIO
    TITLE "0:"
    INDEX 01 00:50:11
  TRACK 60 AUDIO
    TITLE "12:cjc026_07541"
    INDEX 01 00:50:62
  TRACK 61 AUDIO
    TITLE "0:"
    INDEX 01 00:51:62
  TRACK 62 AUDIO
    TITLE "10:cjc026_07542"
    INDEX 01 00:52:36
  TRACK 63 AUDIO
    TITLE "0:"
    INDEX 01 00:53:41
  TRACK 64 AUDIO
    TITLE "11:cjc026_07543"
    INDEX 01 00:54:17
  TRACK 65 AUDIO
    TITLE "0:"
    INDEX 01 00:55:36
  TRACK 66 AUDIO
    TITLE "12:cjc026_07544"
    INDEX 01 00:56:10
  TRACK 67 AUDIO
    TITLE "0:"
    INDEX 01 00:57:15
  TRACK 68 AUDIO
    TITLE "10:cjc026_07545"
    INDEX 01 00:57:64
  TRACK 69 AUDIO
    TITLE "0:"
    INDEX 01 00:59:02
  TRACK 70 AUDIO
    TITLE "11:cjc026_07546"
    INDEX 01 00:59:51
  TRACK 71 AUDIO
    TITLE "0:"
    INDEX 01 01:01:27
  TRACK 72 AUDIO
    TITLE "12:cjc026_07547"
    INDEX 01 01:02:01
  TRACK 73 AUDIO
    TITLE "0:"
    INDEX 01 01:03:12
